<?xml version="1.0" encoding="utf-8"?>
<svg version="1.0" xmlns="http://www.w3.org/2000/svg" width="300.000000pt" height="300.000000pt" viewBox="-3.845 -1.282 200.641 198.718" preserveAspectRatio="xMidYMid meet">
  <g transform="matrix(0.122452, 0, 0, -0.121238, -87.218674, 279.953003)" fill="#000000" stroke="none" style="">
    <path d="M1383 2311 c-190 -31 -355 -119 -484 -259 -149 -162 -213 -331 -212 -557 0 -111 4 -143 27 -218 14 -49 38 -112 52 -140 87 -172 248 -323 422 -393 118 -47 179 -59 317 -58 110 1 144 5 218 28 143 43 235 96 341 195 107 102 177 217 222 368 36 119 38 305 5 428 -95 353 -396 596 -756 610 -55 2 -123 0 -152 -4z m303 -61 c479 -121 724 -652 504 -1095 -50 -101 -111 -179 -197 -250 -262 -217 -651 -235 -930 -44 -356 244 -442 739 -189 1093 103 145 256 248 436 295 104 28 270 28 376 1z" style="fill: rgb(0, 99, 255);"/>
    <path d="M1162 1924 l-22 -15 0 -408 c0 -382 1 -409 18 -424 17 -15 55 -17 344 -17 302 0 326 1 341 18 15 17 17 55 17 345 l0 327 -74 0 c-69 0 -76 2 -95 26 -17 21 -21 41 -21 95 l0 69 -243 0 c-203 0 -246 -3 -265 -16z m488 -74 c9 -94 35 -120 117 -120 27 0 54 -5 61 -12 18 -18 17 -587 -1 -611 -11 -16 -38 -18 -267 -17 -359 0 -328 -2 -307 15 11 7 42 20 70 27 55 14 87 42 325 290 82 87 92 101 92 134 0 31 -8 45 -53 91 -47 46 -59 53 -93 53 -33 0 -47 -8 -91 -51 -42 -41 -53 -47 -53 -31 0 35 -23 43 -115 40 -72 -2 -90 -6 -99 -21 -9 -15 -7 -21 9 -33 15 -11 42 -14 108 -12 48 2 87 1 87 -2 0 -4 -18 -25 -41 -48 l-41 -43 -19 26 c-30 38 -109 33 -109 -6 0 -24 44 -43 84 -35 34 7 33 5 -61 -97 -35 -37 -63 -76 -63 -87 0 -31 -18 -33 -24 -3 -3 16 -5 153 -5 306 1 231 4 280 16 293 12 12 52 14 241 12 l227 -3 5 -55z m18 -214 c53 -51 64 -69 54 -94 -4 -11 -86 -100 -182 -198 l-175 -179 -88 -24 c-48 -13 -89 -22 -92 -19 -3 3 2 48 11 99 l17 94 182 189 c206 213 195 207 273 132z m-230 -8 c-3 -9 -35 -14 -101 -16 -82 -2 -97 0 -97 13 0 12 17 15 101 15 76 0 100 -3 97 -12z m-108 -113 c0 -11 -12 -15 -45 -15 -33 0 -45 4 -45 15 0 11 12 15 45 15 33 0 45 -4 45 -15z" style="fill: rgb(0, 99, 255);"/>
    <path d="M1243 1763 c-20 -7 -15 -41 7 -53 12 -6 77 -10 158 -9 126 1 139 2 151 21 9 15 9 23 0 34 -9 11 -43 14 -158 13 -80 0 -152 -3 -158 -6z m315 -25 c-4 -10 -47 -14 -161 -16 -135 -2 -157 0 -157 13 0 13 23 15 161 15 124 0 160 -3 157 -12z" style="fill: rgb(0, 99, 255);"/>
    <path d="M1560 1635 l-24 -26 57 -56 56 -57 26 24 c14 13 25 28 25 35 0 14 -92 105 -106 105 -6 0 -21 -11 -34 -25z m78 -38 c21 -20 31 -57 14 -57 -5 0 -23 13 -41 30 -22 19 -31 35 -27 45 6 18 18 14 54 -18z" style="fill: rgb(0, 99, 255);"/>
    <path d="M1384 1455 c-71 -75 -130 -141 -132 -146 -16 -43 117 77 253 229 20 22 26 35 18 43 -7 7 -49 -31 -139 -126z" style="fill: rgb(0, 99, 255);"/>
    <path d="M1425 1414 c-119 -126 -143 -164 -104 -164 11 0 259 251 267 269 1 3 -6 11 -17 18 -17 10 -33 -3 -146 -123z" style="fill: rgb(0, 99, 255);"/>
    <path d="M1476 1364 c-101 -104 -127 -136 -122 -151 6 -15 31 6 141 122 125 130 144 156 119 160 -5 1 -67 -58 -138 -131z" style="fill: rgb(0, 99, 255);"/>
    <path d="M1226 1251 c-4 -29 -1 -40 18 -60 19 -18 30 -22 55 -16 39 8 43 41 7 55 -13 5 -27 18 -30 28 -4 11 -15 22 -25 25 -15 4 -20 -3 -25 -32z" style="fill: rgb(0, 99, 255);"/>
    <path d="M1700 1867 c0 -40 5 -68 13 -75 9 -7 137 -23 137 -17 0 1 -34 37 -75 79 l-75 77 0 -64z m51 -27 c21 -12 26 -40 6 -40 -7 0 -18 5 -25 12 -12 12 -17 38 -6 38 3 0 14 -5 25 -10z" style="fill: rgb(0, 99, 255);"/>
  </g>
</svg>